# xmcd
#
# Track frame offsets: 
#        150
#        4454
#        23891
#        34729
#        57378
#        73310
#        93106
#        105580
#        125490
#        135228
#        161090
#        174046
#        199399
#        223050
#        247439
#        270111
#        293751
#
# Disc length: 4230 seconds
#
# Revision: 1
# Processed by: cddbd v1.5.2PL0 Copyright (c) Steve Scherf et al.
# Submitted via: ExactAudioCopyFreeDBPlugin 1.0
#
DISCID=f7108411
DTITLE=Various Artist - Regi In The Mix 6 - A.M. Mix
DYEAR=2008
DGENRE=Dance
TTITLE0=Intro - Doors Open
TTITLE1=Daniel Bovie and Roy Rox - Stop Playing With My Mind (Dub Mix)
TTITLE2=Laidback Luke - Break The House Down
TTITLE3=Niki Belucci - Get Up (D.O.N.S. and DBN Meeting At The Beaty Sal
TTITLE3=on Edit)
TTITLE4=Groove Watchers - High Level
TTITLE5=Jean Elan - Where's Your Head At (Klaas Remix)
TTITLE6=Crookers - Knobbers
TTITLE7=Ultra Naté - Free 2008 (DJ Rebel Remix)
TTITLE8=Dim Chris - Sucker
TTITLE9=Ian Carey ft. Michelle Shellers - Keep On Rising
TTITLE10=Sultan - Protection (Tocadisco Remix)
TTITLE11=Klaas - Feel The Love
TTITLE12=Out Of Office - Break Of Dawn 2008 (Club Mix)
TTITLE13=Phunk Investigation vs Boy George - Generations Of Love 2008 
TTITLE13=(P.I. Firewall Remix)
TTITLE14=Guru Josh Project - Infinity 2008 (Klaas Remix)
TTITLE15=Tocadisco ft. Lennart A. Salomon - Better Begin
TTITLE16=Dominico - Lovin' U (Regi Remix)
EXTD=
EXTT0=
EXTT1=
EXTT2=
EXTT3=
EXTT4=
EXTT5=
EXTT6=
EXTT7=
EXTT8=
EXTT9=
EXTT10=
EXTT11=
EXTT12=
EXTT13=
EXTT14=
EXTT15=
EXTT16=
PLAYORDER=
